<?xml version="1.0" encoding="UTF-8" standalone="no"?>
<!-- Created with Inkscape (http://www.inkscape.org/) -->

<svg
   width="564.43127"
   height="564.00031"
   viewBox="0 0 149.33911 149.22509"
   version="1.1"
   id="svg58362"
   xmlns="http://www.w3.org/2000/svg"
   xmlns:svg="http://www.w3.org/2000/svg">
  <defs
     id="defs58359" />
  <style
     id="style1076">
     .di-primary { color: #400244; } /* purple */
     #billcorner { color: #01b893; } /* cyan */
     #billgreen { color: #7dc3f7; } /* blue */
     #shade { color: #ffc801; } /* blue */
     #border { color: #1a1a1a; } /* darkgrey */
  </style>
  <g
     id="layer1"
     transform="translate(-27.568374,-5.1107829)">
    <path
       class="di-primary"
       fill="currentColor"
       style="display:inline;fill:#f58283;fill-opacity:1;stroke-width:0.264583"
       d="m 62.823469,129.66368 c -0.481083,-0.32742 -1.08891,-0.89297 -1.350727,-1.25677 -0.29568,-0.41085 -1.428768,-4.92174 -2.990735,-11.90625 -1.383087,-6.18464 -4.375056,-19.519639 -6.648821,-29.633337 -2.273764,-10.113698 -4.22382,-19.020129 -4.333458,-19.792067 -0.581456,-4.09395 1.78874,-8.533661 5.411276,-10.136081 0.649001,-0.287084 6.508927,-1.715201 13.022058,-3.173595 6.513129,-1.458394 12.080179,-2.810272 12.371219,-3.004175 0.29105,-0.1939 4.16058,-3.418342 8.59896,-7.165424 17.368599,-14.663344 17.048129,-14.407825 18.070399,-14.407825 0.87716,0 1.1347,0.239132 4.32956,4.020088 1.8683,2.211049 3.52308,4.18747 3.67727,4.392047 0.23067,0.306044 0.65698,0.132844 2.40569,-0.97738 2.16776,-1.376278 3.25432,-1.644508 4.08836,-1.009262 0.23342,0.177786 1.10864,1.424156 1.94492,2.76971 0.83628,1.345555 1.69569,2.446464 1.90981,2.446464 0.21411,0 1.72015,-0.308255 3.34675,-0.685011 1.8322,-0.424378 3.42276,-0.641728 4.18042,-0.571254 1.3897,0.129267 2.70448,0.946859 3.26466,2.030123 0.27397,0.529792 2.78841,10.883993 2.78841,11.482361 0,0.04012 0.40823,0.02529 0.90718,-0.03297 2.09612,-0.24471 4.11132,1.27422 4.67839,3.526282 0.25813,1.025134 0.3914,1.18422 0.99428,1.18694 1.25631,0.0057 3.49649,0.739608 4.98433,1.632989 1.5799,0.948661 2.86752,2.356303 3.73966,4.088242 0.8383,1.664731 4.84943,19.939291 4.8504,22.098238 0.001,3.218825 -1.48442,5.478698 -4.5624,6.939068 l -1.73837,0.82478 1.52706,6.844289 c 1.60703,7.20268 1.65384,7.85191 0.67324,9.33632 -1.04506,1.582 0.33906,1.18575 -20.2871,5.80778 -4.87495,1.09241 -14.39995,3.22553 -21.16667,4.74028 -6.76672,1.51475 -19.744529,4.42474 -28.839579,6.46663 -9.09505,2.0419 -17.0844,3.71288 -17.754103,3.71331 -0.828155,5.3e-4 -1.497434,-0.18965 -2.092339,-0.59454 z"
       id="body" />
    <path
       fill="currentColor"
       style="display:inline;fill:#ffc801;fill-opacity:1;stroke-width:0.264583"
       d="m 62.823469,129.66368 c -0.481083,-0.32742 -1.08891,-0.89297 -1.350727,-1.25677 -0.29568,-0.41085 -1.428768,-4.92174 -2.990735,-11.90625 -1.383087,-6.18464 -4.375056,-19.519639 -6.648821,-29.633337 -2.273764,-10.113698 -4.22382,-19.020129 -4.333458,-19.792067 -0.581456,-4.09395 1.78874,-8.533661 5.411276,-10.136081 0.649001,-0.287084 6.508927,-1.715201 13.022058,-3.173595 6.513129,-1.458394 12.080179,-2.810272 12.371219,-3.004175 0.29105,-0.1939 4.16058,-3.418342 8.59896,-7.165424 17.368599,-14.663344 17.048129,-14.407825 18.070399,-14.407825 0.87716,0 1.1347,0.239132 4.32956,4.020088 1.8683,2.211049 3.52308,4.18747 3.67727,4.392047 0.23067,0.306044 0.65698,0.132844 2.40569,-0.97738 2.16776,-1.376278 3.25432,-1.644508 4.08836,-1.009262 0.23342,0.177786 1.10864,1.424156 1.94492,2.76971 0.83628,1.345555 1.69569,2.446464 1.90981,2.446464 0.21411,0 1.72015,-0.308255 3.34675,-0.685011 1.8322,-0.424378 3.42276,-0.641728 4.18042,-0.571254 1.3897,0.129267 2.70448,0.946859 3.26466,2.030123 0.27397,0.529792 2.78841,10.883993 2.78841,11.482361 0,0.04012 0.40823,0.02529 0.90718,-0.03297 2.09612,-0.24471 4.11132,1.27422 4.67839,3.526282 0.25813,1.025134 0.3914,1.18422 0.99428,1.18694 1.25631,0.0057 3.49649,0.739608 4.98433,1.632989 1.5799,0.948661 2.86752,2.356303 3.73966,4.088242 0.8383,1.664731 4.84943,19.939291 4.8504,22.098238 0.001,3.218825 -1.48442,5.478698 -4.5624,6.939068 l -1.73837,0.82478 1.52706,6.844289 c 1.60703,7.20268 1.65384,7.85191 0.67324,9.33632 -1.04506,1.582 0.33906,1.18575 -20.2871,5.80778 -4.87495,1.09241 -14.39995,3.22553 -21.16667,4.74028 -6.76672,1.51475 -19.744529,4.42474 -28.839579,6.46663 -9.09505,2.0419 -17.0844,3.71288 -17.754103,3.71331 -0.828155,5.3e-4 -1.497434,-0.18965 -2.092339,-0.59454 z m 7.031692,-4.83993 c 2.31869,-0.51554 6.23985,-1.39804 8.71371,-1.96111 9.0639,-2.06302 14.14328,-3.2057 19.44687,-4.37484 6.276809,-1.38369 14.092599,-3.13299 24.209379,-5.41846 3.92906,-0.88761 11.48953,-2.577 16.80104,-3.7542 5.31151,-1.1772 9.76085,-2.23515 9.88743,-2.351 0.12816,-0.1173 -0.37011,-2.89688 -1.12448,-6.27286 -0.74504,-3.33422 -1.35462,-6.128805 -1.35462,-6.210191 0,-0.149127 -1.75763,0.208613 -8.06979,1.642496 -18.18505,4.130945 -17.62979,4.021645 -19.87239,3.912005 -3.45761,-0.169042 -5.96384,-1.642623 -8.07092,-4.745432 -0.5746,-0.846142 -1.3841,-1.713933 -1.79888,-1.928426 -0.97136,-0.502306 -1.9949,-1.727546 -2.84561,-3.406346 -0.53986,-1.065348 -0.6762,-1.720215 -0.6762,-3.247726 0,-3.633735 2.09056,-6.529946 5.50565,-7.627398 1.25031,-0.401791 13.9205,-3.345354 21.22659,-4.931405 1.93732,-0.420565 3.63396,-0.833612 3.77031,-0.917881 0.13635,-0.08427 0.24791,-0.443847 0.24791,-0.799061 0,-0.840771 1.03717,-0.916194 1.25294,-0.09111 0.12093,0.46246 0.28185,0.52763 0.96742,0.391801 1.43007,-0.283337 3.07131,-1.005782 3.07131,-1.351942 0,-0.495522 -2.92009,-13.450789 -3.06428,-13.594979 -0.068,-0.06805 -3.24619,0.572513 -7.06254,1.423469 -3.81635,0.850958 -7.89131,1.753446 -9.05548,2.005536 -1.16416,0.252087 -3.72401,0.82164 -5.68854,1.265671 -1.96453,0.444032 -6.01265,1.359004 -8.99583,2.033265 -2.98318,0.674264 -6.43599,1.448641 -7.672919,1.720837 -1.23693,0.272198 -7.54724,1.684779 -14.02291,3.139072 -6.47568,1.454293 -15.28631,3.43271 -19.579172,4.396483 -6.659555,1.495108 -8.106164,1.74025 -9.855588,1.670122 -1.12771,-0.0452 -2.050444,-0.191331 -2.050521,-0.324726 -7.7e-5,-0.133392 -0.06002,-0.18265 -0.133217,-0.109458 -0.07319,0.07319 1.009779,5.242489 2.406602,11.487327 1.396823,6.244836 2.697225,12.068625 2.889782,12.94175 1.229783,5.576287 4.181415,18.783697 4.493874,20.108337 0.205954,0.87312 0.566005,2.48047 0.800113,3.57187 0.530967,2.47536 0.586565,2.64584 0.862886,2.64584 0.123359,0 2.121391,-0.4218 4.440071,-0.93733 z m -4.533684,-3.1158 c -0.25534,-0.66541 0.06096,-0.91597 1.587524,-1.2576 1.5626,-0.34969 2.26716,-0.22098 2.26716,0.41418 0,0.47794 -0.94141,0.88562 -2.556075,1.10694 -0.892782,0.12237 -1.172295,0.0657 -1.298609,-0.26352 z m 5.484794,-1.52486 c 0.0749,-0.52537 0.33002,-0.68383 1.54489,-0.95945 1.67868,-0.38085 2.11667,-0.29489 2.11667,0.41541 0,0.61093 -0.38074,0.77719 -2.29501,1.00218 -1.42148,0.16706 -1.4541,0.15613 -1.36655,-0.45814 z m 5.42544,-0.68382 c -0.68722,-0.68723 0.83329,-1.6757 2.57763,-1.6757 1.80236,0 1.51355,1.10199 -0.40488,1.54481 -1.53001,0.35317 -1.92657,0.37706 -2.17275,0.13089 z m 5.37986,-1.64816 c 0,-0.6662 0.80449,-1.04406 2.44404,-1.14795 0.86141,-0.0546 1.12853,0.0289 1.20006,0.37496 0.11965,0.57894 -0.58085,0.93644 -2.27541,1.16123 -1.28104,0.16994 -1.36869,0.14507 -1.36869,-0.38824 z m 5.60996,-0.87342 c -0.5663,-0.5663 -0.34021,-0.98032 0.6739,-1.23405 2.20583,-0.55191 2.38509,-0.5629 2.7141,-0.16647 0.46642,0.562 -0.0464,1.09035 -1.26832,1.30679 -0.54052,0.0957 -1.16695,0.22761 -1.39208,0.29305 -0.22512,0.0654 -0.55255,-0.0243 -0.7276,-0.19932 z m 5.42787,-1.16907 c -0.10445,-0.10445 -0.18991,-0.39975 -0.18991,-0.65622 0,-0.35284 0.35804,-0.54064 1.47136,-0.77176 0.80924,-0.168 1.64268,-0.23971 1.85208,-0.15936 0.5822,0.22341 0.45307,0.94223 -0.21458,1.19445 -0.96045,0.36284 -2.71309,0.59875 -2.91895,0.39289 z m 5.23829,-1.41777 c -0.29713,-0.48077 0.36727,-0.9578 1.82395,-1.30956 1.107509,-0.26745 1.359649,-0.25306 1.710339,0.0976 0.36115,0.36115 0.36407,0.45852 0.0239,0.79832 -0.52516,0.5246 -3.290899,0.84609 -3.558179,0.41361 z m 5.596109,-0.977 c -0.52804,-0.52804 -0.11434,-1.09933 0.9991,-1.3797 1.89895,-0.47816 2.58071,-0.40033 2.48093,0.28322 -0.0656,0.44965 -0.38044,0.65564 -1.40746,0.92093 -1.52307,0.39343 -1.8288,0.41933 -2.07257,0.17555 z m 5.22866,-1.49725 c -0.25551,-0.66586 0.0349,-0.87521 1.70622,-1.22989 1.62043,-0.34387 2.14914,-0.24638 2.14914,0.39629 0,0.52001 -0.7384,0.85907 -2.33093,1.07033 -1.11115,0.1474 -1.39387,0.1035 -1.52443,-0.23673 z m 5.61444,-0.88882 c -0.0944,-0.0944 -0.17158,-0.38526 -0.17158,-0.64644 0,-0.33713 0.32617,-0.55836 1.12448,-0.76272 0.61847,-0.15831 1.27331,-0.33775 1.45521,-0.39877 0.55112,-0.18484 1.12448,0.16409 1.12448,0.68433 0,0.47624 -0.32935,0.61686 -2.6727,1.14117 -0.37858,0.0847 -0.76553,0.0768 -0.85989,-0.0176 z m 5.32903,-1.44804 c -0.25204,-0.68332 0.10074,-0.98873 1.50514,-1.30302 1.55088,-0.34707 2.25467,-0.21691 2.25467,0.41697 0,0.74865 -3.50576,1.57483 -3.75981,0.88605 z m 5.61515,-1.01457 c -0.17595,-0.10874 -0.27728,-0.41904 -0.22518,-0.68955 0.0683,-0.35485 0.49932,-0.58391 1.54738,-0.8224 1.68568,-0.38358 2.11413,-0.29581 2.11413,0.4331 0,0.51361 -0.26431,0.63266 -2.5504,1.14877 -0.31131,0.0703 -0.70998,0.0388 -0.88593,-0.0699 z m 5.17003,-1.51639 c -0.10742,-0.27993 -0.008,-0.57795 0.25674,-0.77174 0.52827,-0.38628 2.90205,-0.73871 3.30368,-0.49049 0.63528,0.39263 0.0885,1.00988 -1.19308,1.34697 -1.77531,0.46694 -2.16094,0.45313 -2.36734,-0.0847 z m 5.45266,-1.42299 c 0.0743,-0.5255 0.33368,-0.69414 1.50988,-0.9816 1.61827,-0.3955 2.15168,-0.28573 2.15168,0.44277 0,0.61094 -0.38074,0.7772 -2.29501,1.00218 -1.42435,0.16741 -1.45428,0.15726 -1.36655,-0.46335 z m 5.48988,-0.92772 c -0.30004,-0.36153 -0.27742,-0.48088 0.15046,-0.79375 0.27698,-0.20254 0.59189,-0.36825 0.69979,-0.36825 0.1079,0 0.27396,-0.24506 0.36903,-0.54459 0.11742,-0.36995 0.35646,-0.51843 0.74543,-0.46302 0.45042,0.0642 0.5899,0.28974 0.65372,1.05719 0.0771,0.92741 0.0314,0.98943 -0.92604,1.25529 -1.29023,0.35829 -1.27543,0.35953 -1.69239,-0.14287 z m 0.58683,-4.38389 c -0.12772,-0.338013 -0.31708,-1.120319 -0.4208,-1.738463 -0.15394,-0.91739 -0.10764,-1.154959 0.25196,-1.29295 0.72076,-0.276582 1.19619,0.485024 1.26319,2.023544 0.0514,1.180879 -0.0188,1.449019 -0.39988,1.527379 -0.29302,0.0602 -0.54726,-0.12993 -0.69447,-0.51951 z M 56.623208,80.012032 c -0.343655,-0.556043 0.224133,-0.9882 1.645851,-1.252694 0.832916,-0.154953 1.669065,-0.224536 1.85811,-0.154625 0.527886,0.195218 0.257229,0.934588 -0.478353,1.306751 -0.76366,0.386368 -2.806999,0.454287 -3.025608,0.100568 z m 5.4902,-1.252762 c -0.235249,-0.613048 0.508862,-1.074666 2.080825,-1.290865 2.329783,-0.320429 2.406806,0.849717 0.09426,1.432022 -1.577324,0.397174 -1.978502,0.371139 -2.175088,-0.141157 z m 5.352163,-1.137465 c -0.32494,-0.525775 0.37971,-1.034061 1.8594,-1.341247 1.56425,-0.324734 1.96786,-0.218102 1.96786,0.519906 0,0.584544 -0.27519,0.703575 -2.1755,0.941004 -0.99457,0.124261 -1.52474,0.08585 -1.65176,-0.119663 z m 5.50256,-1.22604 c -0.23874,-0.622149 0.40776,-1.069054 1.97272,-1.363691 1.22831,-0.231251 1.42946,-0.206611 1.64809,0.20189 0.32211,0.601877 -0.0444,0.886613 -1.64297,1.276421 -1.61381,0.393526 -1.78669,0.383506 -1.97784,-0.11462 z m 5.37297,-1.301874 c -0.22808,-0.594357 0.86412,-1.174938 2.35933,-1.254149 1.13545,-0.06015 1.30802,-0.0026 1.30802,0.436266 0,0.929601 -3.33875,1.674199 -3.66735,0.817883 z m 5.4773,-1.073251 c -0.26271,-0.684604 0.10944,-1.098071 1.14394,-1.270944 0.55817,-0.09327 1.27256,-0.240406 1.58752,-0.326959 0.41383,-0.113721 0.65607,-0.0016 0.87341,0.40459 0.26879,0.502245 0.20795,0.599525 -0.57266,0.915541 -1.45285,0.58816 -2.86351,0.717388 -3.03221,0.277772 z m 5.3895,-1.440553 c -0.16469,-0.629764 -0.16076,-0.632439 1.56402,-1.065546 1.51512,-0.380457 2.29871,-0.217241 2.16984,0.451959 -0.0553,0.286933 -0.55888,0.569182 -1.40862,0.789445 -1.80266,0.467273 -2.16421,0.439928 -2.32524,-0.175858 z m 5.63816,-0.790726 c -0.17708,-0.109444 -0.27933,-0.420364 -0.22723,-0.690935 0.0697,-0.361693 0.509,-0.583848 1.65937,-0.839055 1.36437,-0.302686 1.61657,-0.295166 1.97047,0.05874 0.29904,0.29904 0.32803,0.483671 0.11015,0.701553 -0.41623,0.416224 -3.12451,1.00965 -3.51276,0.769699 z m 5.332379,-1.403037 c -0.465479,-0.560869 0.0696,-1.016336 1.61625,-1.375876 1.50393,-0.349602 2.04189,-0.195178 2.04189,0.586131 0,0.68679 -3.17477,1.37218 -3.65814,0.789745 z m 34.86736,-0.879729 c -0.14469,-0.38059 -0.29058,-1.243793 -0.32418,-1.918229 -0.0533,-1.070227 0.006,-1.226252 0.46808,-1.226252 0.42579,0 0.59957,0.296519 0.88956,1.517825 0.19821,0.834803 0.29125,1.698006 0.20674,1.918229 -0.24301,0.63328 -0.95193,0.466611 -1.2402,-0.291573 z m -29.52118,-0.485976 c -0.24352,-0.634582 0.10008,-0.887918 1.63701,-1.206982 1.10471,-0.229338 1.554,-0.22896 1.83174,0.0016 0.5902,0.489825 0.18674,0.984596 -1.05862,1.29818 -1.55964,0.392721 -2.2338,0.366779 -2.41013,-0.09274 z m 5.57242,-1.071005 c -0.49959,-0.386058 -0.50018,-0.407262 -0.0214,-0.778073 0.5692,-0.440878 3.00789,-1.017342 3.36642,-0.795761 0.54138,0.334592 0.23641,1.168202 -0.48513,1.326084 -0.40019,0.08756 -1.0728,0.268428 -1.49469,0.401918 -0.42191,0.133487 -0.78611,0.242707 -0.80934,0.242707 -0.0232,0 -0.27335,-0.178593 -0.55583,-0.396875 z m 5.25595,-1.361178 c -0.23558,-0.613918 0.50939,-1.074737 2.08856,-1.291931 0.9598,-0.132006 1.39324,-0.08918 1.54256,0.152432 0.3793,0.613722 -0.037,1.007856 -1.36557,1.292778 -1.76366,0.378237 -2.06953,0.357544 -2.26555,-0.153279 z m 5.51783,-1.428295 c 0.0732,-0.505528 0.35193,-0.68563 1.51587,-0.979564 1.53197,-0.386876 2.14572,-0.304284 2.14572,0.288753 0,0.63703 -0.69853,0.995148 -2.25426,1.155713 -1.45482,0.150151 -1.49452,0.137039 -1.40733,-0.464902 z m 5.33794,-0.932479 c -0.23411,-0.610076 0.21756,-0.925946 1.87491,-1.311211 1.36202,-0.316611 1.5027,-0.305784 1.73793,0.133739 0.33408,0.624245 -0.0706,0.955847 -1.59544,1.307227 -1.59626,0.367845 -1.83228,0.352665 -2.0174,-0.129755 z m 6.52573,-0.246798 c -0.13831,-0.363802 -0.4413,-0.661458 -0.67331,-0.661458 -0.28521,0 -0.39444,-0.191079 -0.33728,-0.589989 0.10001,-0.697854 1.37499,-1.268114 1.82627,-0.816832 0.34519,0.345194 0.72731,1.942063 0.57406,2.399009 -0.19676,0.586676 -1.12492,0.365791 -1.38974,-0.33073 z m -6.87917,30.020374 c 3.85631,-0.878176 8.08303,-1.822881 9.39271,-2.09935 2.75868,-0.58234 7.48522,-1.648161 10.71563,-2.416344 3.73882,-0.889082 5.54729,-2.343203 5.55965,-4.470305 0.007,-1.218385 -1.12247,-6.35 -1.39774,-6.35 -0.11783,0 -0.66886,0.231929 -1.2245,0.515395 -0.55565,0.28347 -2.3666,0.830922 -4.02436,1.216563 -5.44071,1.265663 -10.57242,2.45197 -18.32513,4.236249 -4.20097,0.966851 -8.02775,1.920705 -8.50395,2.119677 -1.13064,0.472408 -2.42927,1.787546 -2.91644,2.953496 -0.39631,0.948497 -0.47737,3.136866 -0.15838,4.275818 0.22245,0.794292 1.71845,1.616239 2.94089,1.615808 0.51159,-1.8e-4 4.08532,-0.718834 7.94162,-1.597007 z"
       id="billcorner" />
    <path
       id="shade"
       fill="currentColor"
       style="display:inline;fill:#400244;fill-opacity:1;stroke-width:0.264583"
       d="m 104.84945,29.205954 c -0.20866,0.0012 -0.41459,0.05506 -0.64131,0.142627 -0.33672,0.130045 -6.117559,4.880117 -12.84676,10.555427 -6.729208,5.675313 -12.489619,10.519969 -12.800769,10.766269 -0.348059,0.275514 -5.188913,1.481789 -12.58166,3.13521 -13.056384,2.920119 -14.151832,3.286122 -16.020212,5.354195 -1.445838,1.60037 -2.311265,3.699582 -2.429826,5.892663 -0.08267,1.529236 0.145107,2.958555 1.266073,7.9375 0.751932,3.339828 2.005539,8.929998 2.785876,12.422498 6.939167,31.057117 9.475958,42.122357 9.799919,42.748817 0.364712,0.70528 1.409644,1.59517 2.239139,1.90686 1.169403,0.43941 0.569709,0.56192 34.528126,-7.05849 11.579564,-2.5985 29.925574,-6.70408 42.068754,-9.41493 6.56382,-1.4653 11.10914,-2.6074 11.50937,-2.89129 1.16569,-0.82685 1.85233,-2.10659 1.84434,-3.43597 -0.004,-0.66971 -0.65183,-4.0687 -1.43919,-7.553027 -0.78736,-3.48433 -1.38025,-6.417792 -1.31775,-6.518982 0.0625,-0.101189 0.44231,-0.265139 0.84387,-0.364318 1.10965,-0.274081 3.1201,-1.650068 3.89537,-2.666505 0.97652,-1.280274 1.46503,-2.842937 1.46503,-4.684469 0,-1.827329 -3.97363,-20.038021 -4.76147,-21.821408 -1.19227,-2.698848 -4.5494,-5.148313 -7.76593,-5.666319 -1.6788,-0.270365 -2.01355,-0.51036 -2.02055,-1.44694 -0.0121,-1.667749 -2.71668,-3.704815 -4.55011,-3.427183 -0.68208,0.103286 -0.93733,0.0681 -1.06247,-0.190685 -0.0179,-0.03697 -0.0331,-0.07872 -0.0465,-0.125058 -0.0739,-0.254804 -0.61776,-2.665677 -1.20872,-5.357813 -0.59095,-2.692133 -1.27667,-5.290722 -1.52342,-5.774325 -0.55168,-1.081251 -2.32986,-2.165141 -3.54242,-2.159039 -0.49654,0.0026 -2.39049,0.350713 -4.20853,0.773596 -1.81805,0.422881 -3.32128,0.748163 -3.34088,0.722953 -0.0196,-0.02522 -0.71894,-1.149929 -1.55391,-2.49959 -2.30994,-3.733819 -2.70076,-3.871987 -5.70249,-2.014347 -1.08472,0.671285 -2.09928,1.271026 -2.25465,1.332735 -0.15538,0.06171 -1.88179,-1.800855 -3.83646,-4.139282 -2.92933,-3.504444 -3.88569,-4.486724 -4.78988,-4.48138 z m -0.42995,4.934066 c 0.21195,0.04483 1.38141,1.268114 2.71611,2.849955 1.42367,1.687298 2.54344,3.102673 2.48874,3.145544 -0.0866,0.06789 -6.40205,3.952719 -7.31893,4.502052 -0.2193,0.131389 -0.72658,-0.182415 -1.42679,-0.882634 -0.95003,-0.950021 -1.139827,-1.040802 -1.511537,-0.721921 -0.233839,0.200604 -1.591035,1.322051 -3.015835,2.491838 -1.673989,1.374386 -2.800046,2.113587 -3.182236,2.089795 -0.3253,-0.02024 -1.221605,-0.263035 -1.992125,-0.540017 -1.33921,-0.481417 -1.379974,-0.523666 -0.919324,-0.956016 0.265039,-0.248754 3.518236,-2.993427 7.229015,-6.099369 3.710792,-3.105941 6.817252,-5.748321 6.903452,-5.871993 0.005,-0.0077 0.0153,-0.01021 0.0295,-0.0072 z m -0.11421,4.837946 c -1.73806,0 -2.43373,1.837347 -1.0945,2.89078 0.38342,0.301604 0.86495,0.548804 1.07022,0.548804 0.53491,0 1.67224,-1.211458 1.67224,-1.781286 0,-0.885952 -0.76766,-1.658298 -1.64796,-1.658298 z m 13.23124,1.73943 c 0.0286,0.0037 0.0507,0.01246 0.0646,0.02739 0.19688,0.211384 3.74651,5.894782 7.46105,11.945523 1.01198,1.648441 1.79958,3.029987 1.75028,3.070098 -0.24629,0.200382 -3.43503,0.68712 -3.64629,0.556556 -0.13429,-0.083 -0.86683,-1.165482 -1.62729,-2.405539 -0.76046,-1.240057 -1.48473,-2.317954 -1.60972,-2.395204 -0.125,-0.07725 -0.67118,0.134332 -1.21388,0.469741 -0.37959,0.234601 -0.80692,0.405866 -1.26091,0.514697 -0.34049,0.08162 -0.69607,0.127971 -1.0573,0.139525 -1.08368,0.03467 -2.21994,-0.244406 -3.16466,-0.829924 -0.7133,-0.442089 -1.46652,-1.172376 -1.70016,-1.64796 -0.23072,-0.469638 -0.51105,-0.856596 -0.6227,-0.859895 -0.11164,-0.0033 -1.42134,0.750236 -2.91042,1.674315 -1.48908,0.924078 -4.09326,2.531422 -5.78724,3.571875 -3.437919,2.111592 -3.616923,2.146109 -6.445084,1.249537 l -1.852083,-0.587044 1.058333,-0.662493 c 3.412551,-2.136915 15.715494,-9.779368 17.727084,-11.011731 1.30968,-0.80236 2.90255,-1.807665 3.53984,-2.233973 0.55763,-0.373017 1.09612,-0.611603 1.29656,-0.585493 z m -1.7322,6.060096 c -1.11901,0.09743 -2.0143,1.525188 -1.28984,2.630847 0.84981,1.296977 3.0853,0.657008 3.0763,-0.880568 -0.005,-0.840179 -0.21483,-1.174948 -0.99322,-1.584915 -0.26489,-0.139517 -0.535,-0.187849 -0.79324,-0.165364 z m 22.21622,11.010696 c 0.0197,0.0024 0.0531,5.29e-4 0.0605,0.0062 0.13627,0.168449 2.42043,10.252736 2.94659,12.924277 0.0389,0.296711 0.0594,0.549021 0.0677,0.772046 -0.26884,0.371411 -1.73044,0.985575 -3.02359,1.241782 -0.68557,0.135829 -0.84645,0.07076 -0.96738,-0.391705 -0.21577,-0.825085 -1.25316,-0.749821 -1.25316,0.09095 0,0.355213 -0.11169,0.715163 -0.24804,0.799433 -0.13635,0.08427 -1.833,0.497207 -3.77032,0.917773 -7.30609,1.58605 -19.9763,4.529691 -21.22661,4.931482 -3.41509,1.097452 -5.5056,3.993708 -5.5056,7.627443 0,1.527511 0.13658,2.181997 0.67644,3.247347 0.85071,1.6788 1.87394,2.904205 2.8453,3.406511 0.41478,0.214492 1.22426,1.082421 1.79886,1.928564 1.87509,2.761194 4.06848,4.228915 6.96495,4.638476 7.9e-4,1.14e-4 0.001,5.3e-4 0.002,5.3e-4 0.58894,0.09554 1.20091,0.139603 1.83503,0.137973 0.34673,0.009 0.69231,-7.9e-4 1.16168,-0.0537 0.77072,-0.06885 1.57273,-0.200952 2.40968,-0.398942 0.26321,-0.06227 0.41275,-0.09546 0.66301,-0.154514 2.57191,-0.533942 6.84322,-1.504424 14.90709,-3.336229 5.7129,-1.297752 7.68912,-1.71237 8.01399,-1.669151 0.0341,0.08012 0.21715,0.862812 0.45217,1.903762 0.001,0.0046 5.2e-4,0.0031 0.002,0.0078 0.24553,1.125599 0.58401,2.658208 0.95653,4.325314 0.59679,2.67076 1.02748,4.94476 1.12035,5.84615 -0.008,0.22652 -0.0705,0.385 -0.28009,0.52349 -1.05572,0.30551 -5.00001,1.23395 -9.60303,2.25412 -5.31151,1.1772 -12.87198,2.86668 -16.80104,3.7543 -10.11678,2.28546 -17.93257,4.03459 -24.209378,5.41827 -5.303589,1.16915 -10.382975,2.3119 -19.446876,4.37493 -2.473859,0.56307 -6.394989,1.44558 -8.713679,1.96112 -2.313977,0.51448 -4.303662,0.93467 -4.434356,0.93638 -0.0075,4e-5 -0.01405,-10e-4 -0.02119,-10e-4 -0.02503,-8e-4 -0.04881,-0.003 -0.0708,-0.009 -0.01566,-0.004 -0.0307,-0.015 -0.04548,-0.0248 -0.01172,-0.007 -0.02387,-0.0122 -0.03514,-0.0227 -0.110739,-0.12011 -0.227581,-0.52134 -0.492993,-1.66243 -0.06308,-0.28516 -0.118874,-0.53188 -0.203089,-0.92449 -0.234108,-1.09141 -0.593997,-2.69875 -0.799951,-3.57187 -0.312458,-1.32464 -3.263998,-14.53205 -4.493782,-20.108333 -0.192558,-0.873125 -1.492925,-6.697009 -2.889747,-12.941846 -1.335146,-5.969103 -2.372241,-10.90358 -2.398303,-11.396205 0.03251,-0.0054 0.07393,-0.0048 0.122473,0.0011 2.65e-4,0.0063 0.0021,0.01027 0.0021,0.01707 5.5e-5,0.09513 0.480317,0.19566 1.158587,0.262517 1.424924,0.272722 3.072362,0.08706 6.51433,-0.67541 0.01794,-0.004 0.401283,-0.09059 0.428397,-0.09664 1.052195,-0.223883 2.261233,-0.489037 3.804936,-0.835607 4.292862,-0.963774 13.103487,-2.942339 19.579167,-4.396632 6.47567,-1.454293 12.785988,-2.866628 14.022917,-3.138826 1.236927,-0.272195 4.689737,-1.046562 7.672917,-1.720826 2.98318,-0.674259 7.03131,-1.589434 8.99583,-2.033466 1.96454,-0.444032 4.52439,-1.013471 5.68855,-1.265555 1.16417,-0.252093 5.23891,-1.154605 9.05526,-2.005563 3.65039,-0.813954 6.68543,-1.428147 7.00474,-1.421104 z m -3.93206,3.963583 c -0.55366,0.0027 -1.28977,0.454329 -1.36477,0.977718 -0.0572,0.398912 0.0522,0.590145 0.33744,0.590145 0.23201,0 0.53504,0.297656 0.67335,0.661458 0.26482,0.696521 1.19282,0.917406 1.38958,0.330729 0.15325,-0.456946 -0.22894,-2.054143 -0.57413,-2.399337 -0.11282,-0.112818 -0.27692,-0.161618 -0.46147,-0.160713 z m -3.71347,0.947746 c -0.23483,-0.01807 -0.61038,0.05874 -1.29139,0.217043 -1.65735,0.385265 -2.10894,0.700952 -1.87482,1.311029 0.18512,0.48242 0.42118,0.497554 2.01744,0.129709 1.52484,-0.35138 1.92934,-0.682652 1.59526,-1.306896 -0.11762,-0.219763 -0.21166,-0.332814 -0.44649,-0.350885 z m -5.63635,1.24592 c -0.33229,0.01087 -0.77737,0.09005 -1.35185,0.235127 -1.16394,0.293934 -1.44299,0.474258 -1.51619,0.979784 -0.0872,0.601943 -0.0472,0.614722 1.40767,0.464571 1.55573,-0.160565 2.25412,-0.518453 2.25412,-1.155483 0,-0.370649 -0.23992,-0.542134 -0.79375,-0.523999 z m -5.672,1.285192 c -0.17794,0.01077 -0.38534,0.03263 -0.62529,0.06563 -1.57917,0.217194 -2.32382,0.678508 -2.08824,1.292426 0.19602,0.510823 0.50183,0.531199 2.26549,0.152964 1.32857,-0.284922 1.74459,-0.679223 1.36529,-1.292945 -0.11199,-0.18121 -0.38343,-0.250394 -0.91725,-0.218075 z m -4.8488,1.097608 c -0.71475,-0.03208 -2.6444,0.457592 -3.14245,0.84336 -0.47878,0.370811 -0.47788,0.392189 0.0217,0.778245 0.28248,0.218284 0.53232,0.396875 0.55552,0.396875 0.0232,0 0.38786,-0.109392 0.80977,-0.242879 0.42189,-0.133488 1.09429,-0.314481 1.49448,-0.402043 0.72154,-0.157882 1.02663,-0.991425 0.48525,-1.326017 -0.0448,-0.0277 -0.12217,-0.04296 -0.22428,-0.04754 z m 20.97184,0.0341 c -0.46207,0 -0.52148,0.155538 -0.46818,1.225767 0.0336,0.674434 0.17983,1.537639 0.32452,1.918229 0.28827,0.758182 0.99671,0.925251 1.23972,0.291971 0.0845,-0.220224 -0.008,-1.083427 -0.2067,-1.91823 -0.28999,-1.221306 -0.46356,-1.517737 -0.88936,-1.517737 z m -26.80198,1.279509 c -0.28513,-2.46e-4 -0.67392,0.0569 -1.22628,0.171567 -1.53693,0.319063 -1.88011,0.572579 -1.63659,1.207161 0.17633,0.459518 0.85003,0.485738 2.40967,0.09302 1.24536,-0.313584 1.64905,-0.808286 1.05885,-1.298112 -0.13887,-0.115279 -0.32052,-0.173384 -0.60565,-0.173633 z m -5.28598,1.194242 c -0.31486,-0.01714 -0.74292,0.04305 -1.3069,0.174152 -1.54665,0.359539 -2.081915,0.815273 -1.61644,1.376143 0.48337,0.582435 3.65818,-0.102828 3.65818,-0.789618 0,-0.488317 -0.21007,-0.732118 -0.73484,-0.760677 z m -5.459616,1.206646 c -0.277834,-0.0083 -0.681556,0.06518 -1.363739,0.216524 -1.150372,0.255207 -1.589633,0.477533 -1.659332,0.839224 -0.0521,0.270571 0.04978,0.581472 0.226859,0.690915 0.388252,0.23995 3.096734,-0.353754 3.512966,-0.769978 0.217879,-0.217884 0.188968,-0.402211 -0.110072,-0.701251 -0.176951,-0.176951 -0.328848,-0.267153 -0.606682,-0.275434 z m -5.483903,1.271241 c -0.352885,-0.0083 -0.818308,0.05783 -1.386477,0.200504 -1.724782,0.433107 -1.72842,0.435803 -1.56373,1.065567 0.161031,0.615786 0.522264,0.642974 2.324923,0.175701 0.849741,-0.220262 1.353399,-0.502168 1.4087,-0.789101 0.08054,-0.418248 -0.195273,-0.638924 -0.783416,-0.652671 z m -5.32784,1.067117 c -0.0843,-7.94e-4 -0.177144,0.01342 -0.280601,0.04186 -0.31496,0.08655 -1.029333,0.233326 -1.5875,0.326597 -1.034503,0.172873 -1.406827,0.586636 -1.144117,1.271241 0.168698,0.439615 1.579523,0.310139 3.032371,-0.278022 0.780611,-0.316016 0.841367,-0.412943 0.572577,-0.915188 -0.163007,-0.304642 -0.339828,-0.443887 -0.59273,-0.446485 z m -5.446697,1.439707 c -0.17585,-0.0038 -0.399299,0.0041 -0.683162,0.01913 -1.495208,0.07921 -2.587625,0.659831 -2.359546,1.254189 0.328602,0.856316 3.667477,0.111561 3.667477,-0.818039 0,-0.32915 -0.09721,-0.443889 -0.624769,-0.455269 z m -5.43946,1.065567 c -0.226817,0.008 -0.542941,0.05901 -1.003557,0.145727 -1.56496,0.294637 -2.211229,0.741593 -1.97249,1.363742 0.191151,0.498126 0.363847,0.508246 1.977657,0.114721 1.59857,-0.389808 1.965421,-0.674532 1.643312,-1.276409 -0.136645,-0.255312 -0.266896,-0.361116 -0.644922,-0.347781 z m -5.309238,1.221631 c -0.300085,-0.01008 -0.723403,0.05082 -1.309997,0.172599 -1.479691,0.307186 -2.184257,0.815228 -1.859317,1.341003 0.127018,0.205513 0.657008,0.24415 1.651579,0.119891 1.900309,-0.237429 2.175576,-0.356484 2.175576,-0.941031 0,-0.461253 -0.157697,-0.67564 -0.657841,-0.692462 z m -5.673037,1.305862 c -0.220557,-0.0024 -0.47669,0.01474 -0.767914,0.05478 -1.571961,0.216199 -2.315742,0.677828 -2.080493,1.290876 0.196588,0.512297 0.597739,0.538252 2.175063,0.141076 2.023478,-0.509516 2.21724,-1.469459 0.673344,-1.486732 z m -5.087546,1.163754 c -0.353963,-0.0026 -0.980901,0.06569 -1.605587,0.181901 -1.421718,0.264493 -1.989032,0.696595 -1.645378,1.252638 0.218609,0.353719 2.261478,0.285599 3.02514,-0.100769 0.735581,-0.372163 1.006409,-1.111679 0.478523,-1.306899 -0.04726,-0.01749 -0.13471,-0.02598 -0.252698,-0.02687 z m 91.251277,0.08785 c 0.0258,0 0.0607,0.05724 0.0997,0.139528 0.10184,0.264052 0.21129,0.607561 0.33383,1.052132 0.012,0.04472 0.024,0.08942 0.0362,0.135909 0.0644,0.23854 0.14564,0.59269 0.21859,0.890386 0.35971,1.549204 0.71345,3.44896 0.70952,4.132046 -0.002,0.341434 -0.0558,0.663284 -0.15089,0.970483 -0.23308,0.521632 -0.58315,1.06107 -0.98754,1.513602 -0.91189,0.842494 -2.37568,1.499452 -4.42144,1.985926 -3.23041,0.768183 -7.95694,1.834052 -10.71562,2.416392 -1.30968,0.276468 -5.5364,1.221436 -9.39271,2.099611 -3.4098,0.776494 -6.58983,1.426184 -7.63623,1.566831 -0.55574,-0.0043 -1.06397,-0.07516 -1.52187,-0.205155 -0.83763,-0.299392 -1.57389,-0.843224 -1.72444,-1.380794 -0.31899,-1.138952 -0.23766,-3.327213 0.15865,-4.275709 0.48716,-1.16595 1.78546,-2.4809 2.9161,-2.953309 0.4762,-0.198972 4.3029,-1.152916 8.50387,-2.119767 7.75271,-1.784279 12.88479,-2.970771 18.3255,-4.236432 1.65776,-0.385644 3.46839,-0.932995 4.02404,-1.216464 0.55564,-0.283467 1.1069,-0.515216 1.22473,-0.515216 z m -9.06559,18.561659 c -0.0821,0.0026 -0.16829,0.02125 -0.25838,0.05581 -0.35961,0.13799 -0.40613,0.375555 -0.25219,1.292944 0.10372,0.618144 0.29345,1.400384 0.42117,1.738394 0.14721,0.38957 0.40099,0.5796 0.69401,0.51934 0.38108,-0.0784 0.45138,-0.34667 0.39998,-1.527547 -0.0586,-1.346205 -0.42982,-2.097421 -1.00459,-2.078943 z m 1.02422,5.298388 c -0.23683,0.0357 -0.39356,0.18866 -0.48162,0.46612 -0.0951,0.29953 -0.26107,0.54467 -0.36897,0.54467 -0.1079,0 -0.42272,0.1654 -0.6997,0.36794 -0.42788,0.31287 -0.45042,0.43222 -0.15038,0.79375 0.41696,0.50241 0.40217,0.50143 1.6924,0.14314 0.95744,-0.26586 1.00315,-0.32832 0.92605,-1.25574 -0.0638,-0.76744 -0.20329,-0.99261 -0.65371,-1.05678 -0.0972,-0.0139 -0.18512,-0.015 -0.26407,-0.003 z m -4.28862,1.89291 c -0.33082,2.2e-4 -0.78532,0.0775 -1.39217,0.22582 -1.1762,0.28746 -1.43568,0.45584 -1.50998,0.98134 -0.0877,0.62062 -0.0575,0.63094 1.36684,0.46354 1.91427,-0.22499 2.29495,-0.39107 2.29495,-1.00201 0,-0.45531 -0.20829,-0.66906 -0.75964,-0.66869 z m -5.40536,1.28571 c -0.86182,0.0125 -2.29614,0.28338 -2.69234,0.57309 -0.26474,0.19379 -0.36425,0.49159 -0.25683,0.77153 0.2064,0.53787 0.59198,0.55168 2.36729,0.0847 1.28158,-0.33709 1.82849,-0.95458 1.19321,-1.34721 -0.1004,-0.062 -0.32405,-0.0863 -0.61133,-0.0822 z m -5.38727,1.12551 c -0.32224,0.002 -0.7776,0.0799 -1.40973,0.22376 -1.04806,0.23849 -1.47889,0.46733 -1.54719,0.82217 -0.0521,0.27051 0.0488,0.58062 0.22479,0.68937 0.17595,0.10875 0.57494,0.14056 0.88625,0.0703 2.28609,-0.51611 2.55023,-0.63516 2.55023,-1.14877 0,-0.45557 -0.16728,-0.66068 -0.70435,-0.65681 z m -5.44721,1.25935 c -0.35089,-0.005 -0.81317,0.0574 -1.39475,0.18759 -1.4044,0.31429 -1.75737,0.61997 -1.50533,1.30328 0.25405,0.68878 3.75998,-0.1376 3.75998,-0.88625 0,-0.39618 -0.27508,-0.5955 -0.8599,-0.60462 z m -5.61413,1.08573 c -0.0684,0.007 -0.13781,0.0219 -0.2067,0.045 -0.1819,0.061 -0.83674,0.24062 -1.45521,0.39894 -0.79831,0.20435 -1.12448,0.42561 -1.12448,0.76274 0,0.26118 0.0772,0.55211 0.17156,0.64648 0.0944,0.0944 0.48132,0.10227 0.8599,0.0176 2.34335,-0.5243 2.67271,-0.66477 2.67271,-1.14101 0,-0.45521 -0.43883,-0.7796 -0.91778,-0.72967 z m -5.13095,1.31671 c -0.33031,-5.3e-4 -0.7845,0.0664 -1.39216,0.19534 -1.67132,0.35467 -1.96187,0.56404 -1.70636,1.2299 0.13056,0.34022 0.4133,0.38408 1.52446,0.23668 1.59253,-0.21126 2.33112,-0.55021 2.33112,-1.07022 0,-0.40167 -0.20655,-0.5906 -0.75706,-0.5917 z m -5.68234,1.24179 c -0.39275,0.0203 -0.93327,0.12144 -1.64538,0.30075 -1.11344,0.28038 -1.52746,0.85173 -0.99942,1.37976 0.24377,0.24378 0.54967,0.21825 2.07274,-0.17518 1.02702,-0.2653 1.34207,-0.47173 1.40767,-0.92139 0.0624,-0.42722 -0.18104,-0.6178 -0.83561,-0.58394 z m -5.27771,1.1653 c -0.24532,-0.014 -0.5852,0.0492 -1.138954,0.18293 -1.456679,0.35177 -2.121307,0.82871 -1.824178,1.30949 0.26728,0.43247 3.033282,0.11066 3.558442,-0.41393 0.34017,-0.3398 0.33686,-0.43673 -0.0243,-0.79788 -0.17535,-0.17535 -0.32572,-0.26661 -0.57102,-0.28061 z m -5.331981,1.29036 c -0.360677,-0.006 -0.981085,0.0657 -1.588016,0.19172 -1.113319,0.23113 -1.471228,0.41921 -1.471228,0.77205 0,0.25647 0.0852,0.55132 0.189653,0.65577 0.205859,0.20586 1.958753,-0.0299 2.919201,-0.39274 0.667649,-0.25223 0.796658,-0.97083 0.214458,-1.19424 -0.05235,-0.0201 -0.143841,-0.0306 -0.264068,-0.0326 z m -5.562449,1.1157 c -0.361672,0.0222 -0.957942,0.16329 -2.060858,0.43924 -1.014108,0.25374 -1.24016,0.66774 -0.673859,1.23404 0.175048,0.17506 0.502483,0.26438 0.727604,0.19895 0.225128,-0.0654 0.851643,-0.19726 1.392163,-0.293 1.22192,-0.21644 1.734558,-0.74439 1.268138,-1.30638 -0.164505,-0.19822 -0.291518,-0.29504 -0.653188,-0.27285 z m -5.359882,1.38544 c -0.147296,-0.006 -0.325699,-7.9e-4 -0.541051,0.0129 -1.639549,0.1039 -2.443779,0.48206 -2.443779,1.14826 0,0.53331 0.08787,0.55802 1.368909,0.38809 1.694561,-0.22479 2.394963,-0.58223 2.275313,-1.16117 -0.05365,-0.25956 -0.217503,-0.37142 -0.659392,-0.38809 z m -5.787242,1.13378 c -1.744342,0 -3.264842,0.98813 -2.577621,1.67535 0.246179,0.24618 0.642983,0.22243 2.172994,-0.13074 1.91843,-0.44283 2.206985,-1.54461 0.404627,-1.54461 z m -5.05034,1.17668 c -0.322889,0.003 -0.778161,0.0804 -1.407665,0.22324 -1.214869,0.27562 -1.470224,0.43375 -1.545125,0.95911 -0.08755,0.61428 -0.05464,0.62544 1.36684,0.45837 1.914272,-0.22498 2.294951,-0.39107 2.294951,-1.002 0,-0.44394 -0.170849,-0.64409 -0.709001,-0.63872 z m -5.445662,1.25987 c -0.352745,-0.005 -0.818073,0.059 -1.404049,0.19017 -1.526564,0.34163 -1.842839,0.59188 -1.5875,1.25728 0.126315,0.32917 0.405847,0.38592 1.298631,0.26355 1.614665,-0.22131 2.555915,-0.62897 2.555915,-1.10691 0,-0.39697 -0.275088,-0.59594 -0.862997,-0.60409 z" />
    <path
       fill="currentColor"
       style="display:inline;fill:#00b893;fill-opacity:1;stroke-width:0.264583"
       d="m 63.619909,130.06809 c -0.828174,-0.3112 -1.874202,-1.20106 -2.237377,-1.90337 -0.20752,-0.4013 -1.881459,-7.44637 -3.719865,-15.65571 -4.058191,-18.12171 -6.509801,-29.050978 -8.602541,-38.350093 -1.760602,-7.823261 -1.900364,-9.433711 -1.02235,-11.780412 1.281106,-3.424063 3.953009,-5.469334 8.394353,-6.425652 11.598692,-2.497455 21.640712,-4.896003 22.138952,-5.287915 0.31988,-0.251619 6.08114,-5.097534 12.80281,-10.768698 6.72167,-5.671165 12.496949,-10.41761 12.833959,-10.547655 1.21067,-0.467173 1.82529,0.02415 5.41515,4.328902 1.94562,2.333056 3.61249,4.2393 3.70417,4.236099 0.0917,-0.0032 1.1173,-0.598513 2.27915,-1.322916 1.16186,-0.724404 2.35576,-1.317097 2.65311,-1.317097 0.92154,0 1.60026,0.691817 3.17337,3.234614 0.83497,1.34966 1.53341,2.473704 1.5521,2.497877 0.0187,0.02417 1.58178,-0.310991 3.47355,-0.744807 3.75331,-0.860698 4.89872,-0.857543 6.3144,0.0174 1.25382,0.774902 1.57711,1.600708 2.8114,7.181359 1.39414,6.303377 1.24466,5.882817 2.02156,5.68783 0.90253,-0.226521 2.57431,0.273978 3.49067,1.04504 0.75983,0.639358 1.1794,1.438431 1.47819,2.815185 0.1366,0.629423 0.3295,0.731042 1.91028,1.006322 3.29637,0.574037 6.3566,2.752699 7.62113,5.425694 0.88725,1.875498 4.91174,19.929049 4.91174,22.03369 0,1.856287 -0.33871,2.974197 -1.35366,4.467622 -0.77934,1.146759 -2.77368,2.585093 -4.00665,2.889633 -0.40156,0.09918 -0.78127,0.263123 -0.84381,0.364313 -0.0625,0.10119 0.5305,3.034797 1.31786,6.519127 0.78736,3.484328 1.43497,6.883088 1.43913,7.552788 0.008,1.32981 -0.67966,2.61089 -1.84453,3.435 -0.40228,0.2846 -5.37848,1.52067 -12.7,3.15463 -11.22527,2.50516 -26.11355,5.83798 -59.581149,13.33754 -12.861316,2.88202 -14.844472,3.24214 -15.825102,2.87366 z m 10.318752,-6.05759 c 3.56526,-0.80284 10.94713,-2.45632 16.40417,-3.6744 11.972539,-2.67244 27.866029,-6.23576 35.983329,-8.06747 3.27422,-0.73884 9.76312,-2.18755 14.41979,-3.21936 4.65667,-1.03181 8.4973,-1.9015 8.53475,-1.93265 0.10657,-0.0887 -2.72814,-12.546509 -2.89222,-12.710585 -0.0804,-0.08042 -5.49055,1.054071 -12.0225,2.521098 -6.53195,1.467027 -12.53112,2.7925 -13.33149,2.9455 -5.45144,1.042097 -10.78319,-2.693897 -11.97871,-8.393567 -0.84222,-4.015296 1.61561,-8.831326 5.44752,-10.674239 1.19542,-0.574924 5.08502,-1.571818 14.4337,-3.699309 7.03851,-1.601766 12.83143,-2.947892 12.87314,-2.991395 0.13852,-0.144439 -3.41929,-16.280715 -3.63784,-16.499269 -0.0616,-0.06163 -3.31777,0.605949 -7.23587,1.483517 -19.01822,4.259659 -35.647469,7.988027 -51.309229,11.50381 -23.877793,5.360136 -22.123553,5.022594 -24.15631,4.648044 -0.937171,-0.17268 -1.727934,-0.278617 -1.75725,-0.235413 -0.04745,0.06993 0.752191,3.661082 5.260928,23.626469 0.657253,2.910419 2.270934,10.113699 3.585958,16.007289 1.315024,5.8936 2.440626,10.85358 2.501337,11.02219 0.07995,0.22204 0.425242,0.23665 1.252443,0.053 0.628134,-0.13945 4.059094,-0.91042 7.624354,-1.71327 z M 131.02358,93.185954 c 5.92939,-1.326941 12.32775,-2.755911 14.2186,-3.175487 5.16971,-1.147154 6.8257,-2.158754 7.41786,-4.531357 0.11961,-0.479209 -0.19956,-2.326723 -0.937,-5.423959 -0.61512,-2.583463 -1.15971,-4.742815 -1.21021,-4.79856 -0.0505,-0.05575 -0.53004,0.283414 -1.06566,0.753687 -1.31668,1.156065 -2.61514,1.672667 -6.33948,2.52222 -1.73552,0.395885 -4.8819,1.111747 -6.99195,1.590807 -2.11005,0.47906 -7.11068,1.615615 -11.1125,2.525681 -4.00182,0.910066 -7.77653,1.867702 -8.38823,2.128081 -2.80271,1.193006 -4.04023,5.22142 -2.41289,7.854513 1.23674,2.001092 2.75551,2.939944 4.78291,2.956637 0.69181,0.0057 6.10916,-1.075322 12.03855,-2.402263 z m 16.9924,-22.504078 c 1.11647,-1.986502 0.50239,-4.94185 -1.42796,-6.872202 -0.75366,-0.753653 -2.18839,-1.454013 -2.44762,-1.19479 -0.0883,0.08825 0.28037,2.158103 0.81915,4.599676 1.31006,5.936736 1.124,5.434046 1.83813,4.966131 0.32728,-0.21444 0.87551,-0.888905 1.2183,-1.498815 z M 60.003428,66.163677 c 2.793633,-2.364714 6.289704,-5.309886 7.769043,-6.544831 1.47935,-1.234943 2.66826,-2.263767 2.64202,-2.286276 -0.0577,-0.04951 -14.651774,3.279855 -15.353992,3.502729 -0.272206,0.0864 -0.957327,0.574839 -1.522492,1.085432 -1.632318,1.4747 -2.171346,4.118756 -1.229073,6.028883 0.329527,0.668002 2.081831,2.513542 2.386556,2.513542 0.125733,0 2.514305,-1.934766 5.307938,-4.299479 z M 102.21182,54.548506 c 1.69398,-1.040453 4.2983,-2.647797 5.78739,-3.571875 1.48908,-0.924079 2.79877,-1.677438 2.91041,-1.674133 0.11165,0.0033 0.39176,0.390258 0.62248,0.859896 0.23364,0.475583 0.98689,1.205547 1.70019,1.647637 1.67951,1.040918 3.96453,1.114171 5.4829,0.175765 0.5427,-0.335409 1.089,-0.546629 1.214,-0.469376 0.12499,0.07725 0.84946,1.155049 1.60992,2.395106 0.76046,1.240058 1.49253,2.322555 1.62682,2.405552 0.21126,0.130564 3.40045,-0.35607 3.64674,-0.556453 0.0493,-0.04011 -0.73833,-1.421656 -1.75031,-3.070095 -3.71454,-6.050743 -7.26447,-11.734148 -7.46135,-11.945533 -0.11122,-0.119415 -0.72363,0.13168 -1.36093,0.557987 -0.63729,0.426307 -2.23028,1.43158 -3.53996,2.233939 -2.01159,1.232363 -14.314539,8.874527 -17.727089,11.011442 l -1.05833,0.662721 1.85208,0.587142 c 2.82816,0.896572 3.00712,0.86187 6.445039,-1.249722 z m 12.30262,-5.14023 c -0.89164,-1.36081 0.67047,-3.209526 2.08322,-2.465441 0.77839,0.409967 0.98824,0.744863 0.9932,1.585042 0.009,1.537576 -2.22661,2.177376 -3.07642,0.880399 z m 17.89713,4.449823 c 0,-0.256011 -0.35794,-2.071714 -0.79543,-4.034896 -1.10554,-4.96094 -1.25683,-5.577588 -1.40472,-5.72548 -0.17464,-0.174643 -4.41443,0.745919 -4.41443,0.958482 0,0.169945 4.05038,6.831928 5.1105,8.405665 0.62468,0.927311 1.50408,1.158981 1.50408,0.396229 z M 96.351251,45.524775 c 1.4248,-1.169787 2.78185,-2.291013 3.01569,-2.491616 0.37171,-0.318883 0.56174,-0.22814 1.511769,0.721881 0.70021,0.70022 1.20762,1.014108 1.42692,0.882719 0.91688,-0.549333 7.23231,-4.434093 7.31886,-4.501987 0.0547,-0.04287 -1.06546,-1.458471 -2.48913,-3.145769 -1.42368,-1.687298 -2.65902,-2.966628 -2.74521,-2.842955 -0.0862,0.123672 -3.19279,2.766084 -6.903579,5.872025 -3.71078,3.105942 -6.96372,5.850694 -7.22876,6.099448 -0.46065,0.43235 -0.42015,0.474474 0.91906,0.955889 0.77052,0.276982 1.6671,0.520176 1.9924,0.540427 0.38219,0.02379 1.50799,-0.715676 3.18198,-2.090062 z m 6.859549,-3.655822 c -1.33923,-1.053434 -0.64343,-2.891214 1.09463,-2.891214 0.8803,0 1.64781,0.772445 1.64781,1.658398 0,0.569827 -1.13716,1.781186 -1.67208,1.781186 -0.20527,0 -0.68694,-0.246767 -1.07036,-0.54837 z"
       id="billgreen" />
    <g
       id="tag"
       transform="rotate(16.072429,-195.26699,213.72306)">
      <rect
         style="fill:#cccccc;stroke:#973105;stroke-width:0.355685;stroke-opacity:1"
         id="greytag"
         width="64.313187"
         height="10.077576"
         x="14.095851"
         y="14.780255" />
      <text
         xml:space="preserve"
         style="font-style:normal;font-weight:normal;font-size:9.27777px;line-height:1.25;font-family:sans-serif;text-align:center;text-anchor:middle;fill:#000000;fill-opacity:1;stroke:none;stroke-width:0.231946"
         x="75.222115"
         y="19.458588"
         id="name"
         transform="matrix(0.87907822,0.00968582,0.00912021,1.1376557,0,0)"><tspan
           id="fullname"
           style="font-style:normal;font-variant:normal;font-weight:normal;font-stretch:normal;font-size:6.35px;font-family:'TeX Gyre Cursor';-inkscape-font-specification:'TeX Gyre Cursor, Normal';font-variant-ligatures:normal;font-variant-caps:normal;font-variant-numeric:normal;font-variant-east-asian:normal;text-align:center;text-anchor:middle;stroke-width:0.231946"
           x="51.708122"
           y="19.458588">{FULLER NAME}</tspan></text>
    </g>
    <path
       id="border"
       style="display:inline;stroke-width:0.264583"
       fill="currentColor"
       d="m 104.79312,29.213188 c -0.28555,-0.01523 -0.54627,0.08808 -0.83768,0.267684 -0.15058,0.0928 -1.19987,0.946647 -2.68924,2.17868 -0.19463,0.15952 -0.46733,0.388178 -0.68471,0.568438 -1.696251,1.407946 -3.830497,3.1925 -6.166548,5.162476 -15.40723,12.992831 -16.362225,13.778199 -16.904396,13.899413 -0.291039,0.06507 -4.815417,1.071115 -10.054167,2.236038 -4.276815,0.951019 -7.260532,1.617004 -9.505363,2.14819 -0.216998,0.04829 -1.070724,0.239892 -1.210262,0.270785 -0.87035,0.192685 -1.64595,0.403656 -2.350244,0.637685 -2.548278,0.744726 -3.010889,1.236321 -4.112411,2.337843 -1.400874,1.400873 -2.306375,3.201035 -2.614827,5.160925 -0.112999,0.555326 -0.182935,1.091139 -0.182935,1.550292 0,0.04509 0.02078,0.181279 0.03359,0.282154 0.0424,1.464435 0.769625,4.625042 4.965072,23.33501 1.452079,6.475677 3.956071,17.667559 5.564518,24.870839 0.564547,2.52826 1.094703,4.82115 1.58595,6.91223 0.537831,2.35354 0.934942,4.00375 1.258837,5.18935 0.256884,0.99776 0.457467,1.73011 0.529167,1.86966 0.04544,0.0884 0.109577,0.18486 0.181385,0.2837 0.392342,0.85371 0.758669,0.97077 1.323432,1.22111 0.0065,0.004 0.0132,0.0101 0.01963,0.014 0.591252,0.35445 1.452444,0.64599 1.914097,0.64699 7.94e-4,0 0.0038,-5.3e-4 0.0047,-5.3e-4 0.0051,1.1e-4 0.01418,0.003 0.01913,0.003 0.01738,1e-5 0.0994,-0.0148 0.142626,-0.0207 0.838962,-0.0929 4.621623,-0.87142 8.829437,-1.82211 4.48605,-1.01357 16.193323,-3.64185 26.015983,-5.84099 9.822649,-2.19915 24.467339,-5.48168 32.543749,-7.29465 8.0764,-1.81296 15.56212,-3.4922 16.63465,-3.73155 0.55677,-0.12426 1.15576,-0.30391 1.67224,-0.49041 0.31012,-0.0784 0.50804,-0.13205 0.56069,-0.15348 0.29693,-0.12083 0.59255,-0.33487 0.87023,-0.59841 0.84186,-0.73536 1.42842,-1.96437 1.42576,-3.06597 -0.001,-0.50932 -0.65641,-3.83352 -1.45521,-7.386627 -0.72893,-3.242336 -1.22421,-5.473731 -1.32499,-5.952606 -0.0681,-0.333793 -0.098,-0.500584 -0.10903,-0.582393 0.0359,-0.04103 0.48064,-0.266187 1.04128,-0.537954 0.36513,-0.141581 0.80245,-0.359026 1.25367,-0.620633 2.65924,-1.417415 3.90491,-3.316512 3.961,-6.37894 0.059,-1.002128 -0.0246,-2.062866 -0.26614,-3.147094 -0.004,-0.0195 -0.0395,-0.176607 -0.0444,-0.198954 -0.10015,-0.568103 -0.21615,-1.155824 -0.36328,-1.785422 -0.44213,-1.891768 -1.41871,-6.237552 -2.1699,-9.657291 -0.68675,-3.126386 -1.19311,-5.158542 -1.72547,-6.622334 -0.097,-0.312314 -0.1835,-0.571722 -0.24185,-0.700217 -0.10654,-0.234603 -0.22777,-0.462767 -0.35553,-0.687813 -0.49299,-0.952069 -1.05823,-1.625217 -1.82573,-2.332673 -0.59334,-0.54692 -1.29947,-1.033566 -2.05001,-1.435571 -0.20916,-0.11435 -0.42228,-0.220136 -0.6382,-0.318844 -0.026,-0.01185 -0.0525,-0.02146 -0.0785,-0.03307 -0.19034,-0.08503 -0.38268,-0.163936 -0.57722,-0.236162 -0.10264,-0.03871 -0.20468,-0.07295 -0.30748,-0.108003 -0.0857,-0.0285 -0.17151,-0.05625 -0.25786,-0.08217 -0.60206,-0.186939 -1.2007,-0.316055 -1.76475,-0.3576 l -0.3912,-0.02894 c -0.75582,-0.08365 -1.06913,-0.177292 -1.19889,-0.448551 l -0.20567,-0.818039 c -0.59327,-2.356117 -1.98079,-3.521866 -4.28656,-3.601847 l -1.37201,-0.04754 -1.22473,-5.423958 c -0.13428,-0.594538 -0.26749,-1.15951 -0.39894,-1.714625 -0.3088,-1.375198 -0.71201,-3.182813 -0.76946,-3.411678 -0.0595,-0.237148 -0.17288,-0.479766 -0.31265,-0.719851 -0.0203,-0.05508 -0.043,-0.119544 -0.0568,-0.144693 -0.50383,-0.91422 -1.85592,-1.912715 -2.84117,-2.097548 -0.12649,-0.02373 -0.35544,-0.01878 -0.62477,-0.0021 -0.48579,-0.02323 -1.12468,0.06802 -2.18333,0.29042 -1.45351,0.253053 -3.23536,0.638466 -4.87567,1.075389 -0.45522,0.121255 -0.77375,-0.235331 -1.95544,-2.18798 -1.75969,-2.90775 -2.00375,-3.188476 -2.95176,-3.396692 -0.0283,-0.0062 -0.0566,-0.0077 -0.0847,-0.01241 -0.27617,-0.06856 -0.54643,-0.04082 -0.8289,0.0739 -0.0356,0.01445 -0.11782,0.05783 -0.17776,0.08733 -0.43416,0.178691 -1.00532,0.499295 -1.86552,1.026811 -1.20521,0.739089 -2.26156,1.344102 -2.34766,1.344102 -0.0861,0 -1.77767,-1.90259 -3.75895,-4.227648 -1.24842,-1.465046 -2.13584,-2.467401 -2.83496,-3.170867 -0.69856,-0.718938 -1.21506,-1.168989 -1.44539,-1.226798 -0.0811,-0.02035 -0.16125,-0.03188 -0.24288,-0.03772 -0.0847,-0.02356 -0.16695,-0.03917 -0.2465,-0.04341 z m -0.11059,4.803325 c 0.427,0.153048 5.31482,6.126792 5.07773,6.205823 -0.14283,0.04761 -0.85801,0.480431 -1.58957,0.962216 -3.643,2.399199 -5.94159,3.643569 -6.4394,3.485573 -0.2846,-0.09033 -0.82282,-0.527648 -1.19631,-0.971516 -0.591828,-0.703349 -0.738053,-0.761941 -1.136362,-0.455268 -0.251362,0.193532 -1.407808,1.128572 -2.570387,2.077908 -1.162569,0.949335 -2.293671,1.867215 -2.513542,2.039152 -0.219869,0.171942 -2.763211,2.288574 -5.651852,4.704106 -0.01397,0.0117 -0.01339,0.01103 -0.02739,0.02273 -0.01892,0.01579 -0.03237,0.02667 -0.05116,0.04237 -0.99318,0.830217 -1.821175,1.514356 -2.579172,2.131653 -0.242313,0.19695 -0.500986,0.410207 -0.730186,0.59273 -0.04158,0.03334 -0.07778,0.06071 -0.118856,0.09354 -2.885964,2.2888 -5.028499,3.636127 -12.275739,8.108548 -0.544465,0.336003 -1.043995,0.647653 -1.592151,0.987021 -0.46114,0.286221 -0.74335,0.457993 -1.185974,0.733287 -2.764898,1.71967 -5.562864,3.41466 -6.217708,3.767212 l -1.039731,0.560173 c 0.07297,-0.06657 0.266301,-0.232452 0.383958,-0.334862 l 0.258898,-0.201023 c 0.436562,-0.33927 1.686719,-1.393909 2.778125,-2.344041 0.79103,-0.688637 1.486773,-1.278562 2.128036,-1.82263 0.765045,-0.646888 1.603631,-1.352656 2.027266,-1.716172 0.809223,-0.678011 1.600044,-1.339594 2.749704,-2.310456 1.65934,-1.401265 4.696883,-3.961109 6.750492,-5.688542 0.405619,-0.341193 1.611175,-1.363736 2.221053,-1.878438 0.322945,-0.273355 0.759103,-0.63763 1.036113,-0.872813 0.74348,-0.631225 1.124353,-0.952479 1.819011,-1.542026 2.175671,-1.839683 3.902432,-3.29529 6.168615,-5.217253 2.411711,-2.045385 4.266954,-3.614812 5.915919,-5.006412 0.548844,-0.461793 1.17339,-0.988348 1.645378,-1.383895 0.944761,-0.794337 1.774392,-1.488749 2.446362,-2.046904 2.49237,-2.064858 3.40393,-2.759398 3.50883,-2.721798 z m -0.49092,5.01468 c -0.43106,-0.02035 -0.81014,0.232293 -1.21388,0.773596 -0.4424,0.593138 -0.46989,0.786324 -0.18707,1.322917 0.18215,0.345596 0.46259,0.715777 0.6227,0.82269 0.49185,0.328417 1.28356,0.224145 1.79162,-0.235646 0.7071,-0.63991 0.62301,-1.8397 -0.16485,-2.355926 -0.31264,-0.204851 -0.58989,-0.315426 -0.84852,-0.327631 z m 13.18524,1.621607 c 0.31226,0.052 1.00533,0.969209 2.18229,2.88458 1.00756,1.639658 3.12247,5.053172 4.69997,7.585584 1.57752,2.532411 2.83679,4.627702 2.79828,4.656563 -0.25014,0.18769 -3.70948,0.914739 -3.87263,0.813903 -0.1109,-0.06854 -0.90031,-1.25391 -1.75441,-2.634464 l -1.55288,-2.510441 -1.09812,0.643888 c -0.81958,0.480303 -1.48579,0.643887 -2.6231,0.643887 -1.92759,0 -3.06304,-0.537199 -4.37028,-2.066539 l -1.02939,-1.204063 -2.73213,1.678969 c -1.50285,0.923285 -5.70922,3.485259 -9.347237,5.693709 -3.638018,2.208451 -8.219128,5.004084 -10.180257,6.212026 l -3.565673,2.196248 -5.162992,1.152901 c -2.83958,0.634232 -5.338985,1.153416 -5.554184,1.153416 -0.215201,0 0.319461,-0.433271 1.18804,-0.962731 0.868572,-0.529463 1.995954,-1.230204 2.505274,-1.55701 1.02017,-0.65459 18.985402,-11.844142 31.209979,-19.439126 4.28689,-2.663393 7.97784,-4.886526 8.20209,-4.940265 0.0175,-0.0042 0.0365,-0.0045 0.0574,-0.0011 z m 12.75632,3.424598 c 0.0406,0.0028 0.0671,0.0092 0.078,0.02016 0.14789,0.147891 0.29954,0.76481 1.40508,5.72575 0.43749,1.963182 0.7953,3.778885 0.7953,4.034896 0,0.762751 -0.87962,0.530953 -1.5043,-0.396359 -1.06012,-1.573737 -5.11028,-8.235744 -5.11028,-8.405688 0,-0.199279 3.72647,-1.020739 4.33616,-0.978752 z m -14.19034,2.838069 c -1.40601,0 -2.07147,1.967007 -0.93483,2.763139 1.01987,0.714346 1.93762,0.346786 2.39985,-0.960665 0.21171,-0.598848 -0.76676,-1.802474 -1.46502,-1.802474 z M 70.414339,57.332404 c 0.02625,0.02252 -1.162349,1.051737 -2.641701,2.28668 -1.479338,1.234945 -4.9754,4.180107 -7.769035,6.544821 -2.735905,2.31585 -5.069454,4.207332 -5.283398,4.285012 -0.04767,-0.0076 -0.09747,-0.01712 -0.164846,-0.04496 -0.513422,-0.312111 -1.95077,-1.854875 -2.246376,-2.454114 -0.942273,-1.910125 -0.403452,-4.554389 1.228866,-6.029089 0.565165,-0.510593 1.250698,-0.998805 1.522904,-1.085205 0.70222,-0.222874 15.295885,-3.552656 15.353586,-3.503145 z m 67.718351,0.284736 c 0.0276,0.03513 0.0548,0.06798 0.0842,0.122989 0.4314,1.264471 3.72665,16.234898 3.59306,16.374195 -0.0417,0.0435 -5.8346,1.389267 -12.87311,2.991033 -9.34868,2.127491 -13.23833,3.124592 -14.43375,3.699515 -3.83191,1.842913 -6.28943,6.658989 -5.44721,10.674285 1.19552,5.69967 6.52716,9.435383 11.9786,8.393287 0.80037,-0.153001 6.79953,-1.478531 13.33148,-2.945559 6.53195,-1.467024 11.94212,-2.601195 12.02252,-2.520775 0.15832,0.158316 2.79486,11.72897 2.88458,12.623 -0.0604,0.0516 -0.22836,0.11872 -0.45527,0.19534 -0.64256,0.16234 -3.84042,0.88711 -8.07186,1.82469 -4.65667,1.03181 -11.14557,2.4806 -14.41979,3.21945 -8.1173,1.83171 -24.01079,5.39529 -35.983332,8.06772 -5.45704,1.21809 -12.838907,2.87136 -16.404167,3.6742 -3.565261,0.80284 -6.996206,1.57362 -7.62434,1.71307 -0.827201,0.18365 -1.172689,0.16933 -1.252638,-0.0527 -0.06071,-0.16861 -1.186114,-5.12847 -2.501138,-11.02207 -1.314994,-5.8936 -2.928545,-13.09688 -3.585799,-16.0073 -4.508736,-19.965385 -5.308627,-23.556535 -5.261177,-23.626464 0.02932,-0.0432 0.820344,0.06245 1.757514,0.235127 2.03276,0.374549 0.278358,0.712356 24.15615,-4.64778 15.661759,-3.51578 32.290797,-7.244548 51.309017,-11.504205 3.8021,-0.851591 6.95529,-1.499399 7.19646,-1.481048 z m 6.15621,4.943886 c 0.45859,-0.0293 1.63963,0.589055 2.29909,1.248502 1.93035,1.93035 2.54428,4.885947 1.42782,6.872447 -0.34279,0.609912 -0.89074,1.284179 -1.21802,1.498618 -0.71413,0.467916 -0.52807,0.97063 -1.83813,-4.966105 -0.53878,-2.441575 -0.90737,-4.511471 -0.81907,-4.59972 0.0324,-0.0324 0.0828,-0.04956 0.14831,-0.05374 z m 6.18567,12.692764 c 0.005,-0.0013 0.006,0.0011 0.01,5.29e-4 0.015,0.01614 0.0303,0.03728 0.0455,0.05891 0.0813,0.192458 0.59938,2.247789 1.19321,4.741831 0.73744,3.097234 1.0565,4.944748 0.93689,5.423959 -0.59216,2.3726 -2.24792,3.384351 -7.41763,4.531505 -1.89085,0.419577 -8.28938,1.848575 -14.21877,3.175516 -5.92939,1.326941 -11.34674,2.408137 -12.03854,2.402438 -2.02741,-0.01669 -3.54592,-0.955834 -4.78266,-2.956925 -1.62734,-2.633094 -0.38993,-6.661296 2.41278,-7.854302 0.61169,-0.260379 4.38629,-1.21797 8.38811,-2.128036 4.00182,-0.910066 9.00245,-2.046883 11.1125,-2.525943 2.11005,-0.479059 5.25631,-1.194715 6.99182,-1.590601 3.72435,-0.849553 5.02299,-1.36626 6.33967,-2.522325 0.46867,-0.411491 0.89439,-0.722546 1.02733,-0.756545 z" />
    <text
       xml:space="preserve"
       style="font-style:normal;font-weight:normal;font-size:2.46944px;line-height:1.25;font-family:Cousine;text-align:center;text-anchor:middle;fill:#000000;fill-opacity:1;stroke:none;stroke-width:0.264583;-inkscape-font-specification:'Cousine, Normal';font-stretch:normal;font-variant:normal;font-variant-ligatures:normal;font-variant-caps:normal;font-variant-numeric:normal;font-variant-east-asian:normal"
       x="77.861244"
       y="140.1212"
       id="hash"
       transform="rotate(-12.391375)"><tspan
         id="qmhash"
         style="font-style:normal;font-variant:normal;font-weight:normal;font-stretch:normal;font-size:2.46944454px;font-family:Cousine;-inkscape-font-specification:'Cousine, Normal';font-variant-ligatures:normal;font-variant-caps:normal;font-variant-numeric:normal;font-variant-east-asian:normal;text-align:center;text-anchor:middle;fill:#f2f2f2;stroke-width:0.264583"
         x="77.861244"
         y="140.1212">{<tspan
   style="font-style:normal;font-variant:normal;font-weight:normal;font-stretch:normal;font-size:2.46944454px;font-family:Cousine;-inkscape-font-specification:'Cousine, Normal';font-variant-ligatures:normal;font-variant-caps:normal;font-variant-numeric:normal;font-variant-east-asian:normal"
   id="tspan74750">Qmhashtagbase58btc</tspan>}</tspan></text>
  </g>
  <script
     type="text/javascript"
     id="script1084">
!(async function() {
console.log('Running nf-wallet.js script from',location.pathname);
// import 'nf-wallet.js'
})();
 </script>
</svg>
